<svg width="160" height="36" viewBox="0 0 160 36" fill="none" xmlns="http://www.w3.org/2000/svg">
<path d="M50.456 26.168C48.872 26.168 47.416 25.8 46.088 25.064C44.776 24.328 43.728 23.304 42.944 21.992C42.176 20.664 41.792 19.176 41.792 17.528C41.792 15.88 42.176 14.4 42.944 13.088C43.728 11.776 44.776 10.752 46.088 10.016C47.416 9.28 48.872 8.912 50.456 8.912C52.04 8.912 53.488 9.28 54.8 10.016C56.128 10.752 57.168 11.776 57.92 13.088C58.688 14.4 59.072 15.88 59.072 17.528C59.072 19.176 58.688 20.664 57.92 21.992C57.152 23.304 56.112 24.328 54.8 25.064C53.488 25.8 52.04 26.168 50.456 26.168ZM50.456 22.424C51.8 22.424 52.872 21.976 53.672 21.08C54.488 20.184 54.896 19 54.896 17.528C54.896 16.04 54.488 14.856 53.672 13.976C52.872 13.08 51.8 12.632 50.456 12.632C49.096 12.632 48.008 13.072 47.192 13.952C46.392 14.832 45.992 16.024 45.992 17.528C45.992 19.016 46.392 20.208 47.192 21.104C48.008 21.984 49.096 22.424 50.456 22.424ZM60.5392 19.304C60.5392 17.912 60.8192 16.696 61.3792 15.656C61.9552 14.616 62.7472 13.816 63.7552 13.256C64.7792 12.696 65.9472 12.416 67.2592 12.416C68.9392 12.416 70.3392 12.856 71.4592 13.736C72.5952 14.616 73.3392 15.856 73.6912 17.456H69.3232C68.9552 16.432 68.2432 15.92 67.1872 15.92C66.4352 15.92 65.8352 16.216 65.3872 16.808C64.9392 17.384 64.7152 18.216 64.7152 19.304C64.7152 20.392 64.9392 21.232 65.3872 21.824C65.8352 22.4 66.4352 22.688 67.1872 22.688C68.2432 22.688 68.9552 22.176 69.3232 21.152H73.6912C73.3392 22.72 72.5952 23.952 71.4592 24.848C70.3232 25.744 68.9232 26.192 67.2592 26.192C65.9472 26.192 64.7792 25.912 63.7552 25.352C62.7472 24.792 61.9552 23.992 61.3792 22.952C60.8192 21.912 60.5392 20.696 60.5392 19.304ZM83.3504 22.52V26H81.2624C79.7744 26 78.6144 25.64 77.7824 24.92C76.9504 24.184 76.5344 22.992 76.5344 21.344V16.016H74.9024V12.608H76.5344V9.344H80.6384V12.608H83.3264V16.016H80.6384V21.392C80.6384 21.792 80.7344 22.08 80.9264 22.256C81.1184 22.432 81.4384 22.52 81.8864 22.52H83.3504ZM91.7324 26.192C90.4204 26.192 89.2364 25.912 88.1804 25.352C87.1404 24.792 86.3164 23.992 85.7084 22.952C85.1164 21.912 84.8204 20.696 84.8204 19.304C84.8204 17.928 85.1244 16.72 85.7324 15.68C86.3404 14.624 87.1724 13.816 88.2284 13.256C89.2844 12.696 90.4684 12.416 91.7804 12.416C93.0924 12.416 94.2764 12.696 95.3324 13.256C96.3884 13.816 97.2204 14.624 97.8284 15.68C98.4364 16.72 98.7404 17.928 98.7404 19.304C98.7404 20.68 98.4284 21.896 97.8044 22.952C97.1964 23.992 96.3564 24.792 95.2844 25.352C94.2284 25.912 93.0444 26.192 91.7324 26.192ZM91.7324 22.64C92.5164 22.64 93.1804 22.352 93.7244 21.776C94.2844 21.2 94.5644 20.376 94.5644 19.304C94.5644 18.232 94.2924 17.408 93.7484 16.832C93.2204 16.256 92.5644 15.968 91.7804 15.968C90.9804 15.968 90.3164 16.256 89.7884 16.832C89.2604 17.392 88.9964 18.216 88.9964 19.304C88.9964 20.376 89.2524 21.2 89.7644 21.776C90.2924 22.352 90.9484 22.64 91.7324 22.64ZM100.102 19.304C100.102 17.912 100.382 16.696 100.942 15.656C101.518 14.616 102.31 13.816 103.318 13.256C104.342 12.696 105.51 12.416 106.822 12.416C108.502 12.416 109.902 12.856 111.022 13.736C112.158 14.616 112.902 15.856 113.254 17.456H108.886C108.518 16.432 107.806 15.92 106.75 15.92C105.998 15.92 105.398 16.216 104.95 16.808C104.502 17.384 104.278 18.216 104.278 19.304C104.278 20.392 104.502 21.232 104.95 21.824C105.398 22.4 105.998 22.688 106.75 22.688C107.806 22.688 108.518 22.176 108.886 21.152H113.254C112.902 22.72 112.158 23.952 111.022 24.848C109.886 25.744 108.486 26.192 106.822 26.192C105.51 26.192 104.342 25.912 103.318 25.352C102.31 24.792 101.518 23.992 100.942 22.952C100.382 21.912 100.102 20.696 100.102 19.304ZM114.633 19.28C114.633 17.904 114.889 16.696 115.401 15.656C115.929 14.616 116.641 13.816 117.537 13.256C118.433 12.696 119.433 12.416 120.537 12.416C121.481 12.416 122.305 12.608 123.009 12.992C123.729 13.376 124.281 13.88 124.665 14.504V12.608H128.769V26H124.665V24.104C124.265 24.728 123.705 25.232 122.985 25.616C122.281 26 121.457 26.192 120.513 26.192C119.425 26.192 118.433 25.912 117.537 25.352C116.641 24.776 115.929 23.968 115.401 22.928C114.889 21.872 114.633 20.656 114.633 19.28ZM124.665 19.304C124.665 18.28 124.377 17.472 123.801 16.88C123.241 16.288 122.553 15.992 121.737 15.992C120.921 15.992 120.225 16.288 119.649 16.88C119.089 17.456 118.809 18.256 118.809 19.28C118.809 20.304 119.089 21.12 119.649 21.728C120.225 22.32 120.921 22.616 121.737 22.616C122.553 22.616 123.241 22.32 123.801 21.728C124.377 21.136 124.665 20.328 124.665 19.304ZM139.922 26L135.842 20.384V26H131.738V8.24H135.842V18.056L139.898 12.608H144.962L139.394 19.328L145.01 26H139.922ZM159.198 19.088C159.198 19.472 159.174 19.872 159.126 20.288H149.838C149.902 21.12 150.166 21.76 150.63 22.208C151.11 22.64 151.694 22.856 152.382 22.856C153.406 22.856 154.118 22.424 154.518 21.56H158.886C158.662 22.44 158.254 23.232 157.662 23.936C157.086 24.64 156.358 25.192 155.478 25.592C154.598 25.992 153.614 26.192 152.526 26.192C151.214 26.192 150.046 25.912 149.022 25.352C147.998 24.792 147.198 23.992 146.622 22.952C146.046 21.912 145.758 20.696 145.758 19.304C145.758 17.912 146.038 16.696 146.598 15.656C147.174 14.616 147.974 13.816 148.998 13.256C150.022 12.696 151.198 12.416 152.526 12.416C153.822 12.416 154.974 12.688 155.982 13.232C156.99 13.776 157.774 14.552 158.334 15.56C158.91 16.568 159.198 17.744 159.198 19.088ZM154.998 18.008C154.998 17.304 154.758 16.744 154.278 16.328C153.798 15.912 153.198 15.704 152.478 15.704C151.79 15.704 151.206 15.904 150.726 16.304C150.262 16.704 149.974 17.272 149.862 18.008H154.998Z" fill="#036666"/>
<rect y="1" width="36" height="35" rx="5" fill="#99E2B4"/>
<rect width="3.60855" height="14.552" rx="1.80428" transform="matrix(0.900262 0.435347 -0.410102 0.91204 14.6078 11.2083)" fill="#036666"/>
<rect width="3.60855" height="10.1864" rx="1.80428" transform="matrix(0.900263 0.435347 -0.410102 0.91204 18.5774 15.5833)" fill="#036666"/>
<rect width="3.60855" height="5.8208" rx="1.80428" transform="matrix(0.900263 0.435347 -0.410102 0.91204 22.5471 19.9583)" fill="#036666"/>
</svg>
